<?xml version="1.0" encoding="utf-8"?>
<!-- Generator: Adobe Illustrator 24.1.0, SVG Export Plug-In . SVG Version: 6.00 Build 0)  -->
<svg version="1.1" id="Ebene_1" xmlns="http://www.w3.org/2000/svg" xmlns:xlink="http://www.w3.org/1999/xlink" x="0px" y="0px"
	 viewBox="0 0 600 600" style="enable-background:new 0 0 600 600;" xml:space="preserve">
<style type="text/css">
	.st0{fill:#FFFFFF;}
</style>
<g>
	<path class="st0" d="M592.2,43c-12.5-25.4-38.5-43-68.7-43L76.6,0C34.3,0,0,34.3,0,76.6l0,305C145.7,217.1,395.3,79,592.2,43z"/>
	<path class="st0" d="M318.6,600l204.8,0c42.3,0,76.6-34.3,76.6-76.6l0-322C477.3,285.2,363.6,465.3,318.6,600z"/>
	<path class="st0" d="M12,564.5C25.6,585.8,49.4,600,76.6,600l96.4,0c83.3-191.5,267.6-356.4,427-448.5l0-66.6
		C427.5,130.3,169.1,307.9,12,564.5z"/>
</g>
</svg>
